<mxfile host="app.diagrams.net" modified="2022-05-01T20:32:49.524Z" agent="5.0 (Windows NT 10.0; Win64; x64) AppleWebKit/537.36 (KHTML, like Gecko) Chrome/100.0.4896.127 Safari/537.36" etag="XHqlcE0ir9VE9v3l6H7U" version="17.4.6" type="github">
  <diagram name="Page-1" id="e7e014a7-5840-1c2e-5031-d8a46d1fe8dd">
    <mxGraphModel dx="1422" dy="762" grid="1" gridSize="10" guides="1" tooltips="1" connect="1" arrows="1" fold="1" page="1" pageScale="1" pageWidth="1169" pageHeight="826" background="none" math="0" shadow="0">
      <root>
        <mxCell id="0" />
        <mxCell id="1" parent="0" />
        <mxCell id="4E_-Y2zPP1L5DoWa1tGC-41" value="Lipe&lt;br&gt;" style="shape=umlActor;verticalLabelPosition=bottom;verticalAlign=top;html=1;outlineConnect=0;" vertex="1" parent="1">
          <mxGeometry x="10" y="20" width="30" height="60" as="geometry" />
        </mxCell>
        <mxCell id="4E_-Y2zPP1L5DoWa1tGC-45" value="Lightweight" style="swimlane;" vertex="1" parent="1">
          <mxGeometry x="50" width="210" height="400" as="geometry">
            <mxRectangle x="310" y="20" width="130" height="23" as="alternateBounds" />
          </mxGeometry>
        </mxCell>
        <mxCell id="4E_-Y2zPP1L5DoWa1tGC-44" value="Inserir treino&lt;br&gt;(workouts)&lt;br&gt;" style="rounded=0;whiteSpace=wrap;html=1;" vertex="1" parent="4E_-Y2zPP1L5DoWa1tGC-45">
          <mxGeometry x="40" y="240" width="120" height="60" as="geometry" />
        </mxCell>
        <mxCell id="4E_-Y2zPP1L5DoWa1tGC-46" value="Consultar treino&lt;br&gt;(workouts)" style="rounded=0;whiteSpace=wrap;html=1;" vertex="1" parent="4E_-Y2zPP1L5DoWa1tGC-45">
          <mxGeometry x="40" y="330" width="120" height="60" as="geometry" />
        </mxCell>
        <mxCell id="4E_-Y2zPP1L5DoWa1tGC-48" value="" style="endArrow=classic;html=1;rounded=0;entryX=0.7;entryY=-0.033;entryDx=0;entryDy=0;entryPerimeter=0;exitX=0.625;exitY=1.05;exitDx=0;exitDy=0;exitPerimeter=0;" edge="1" parent="4E_-Y2zPP1L5DoWa1tGC-45" source="4E_-Y2zPP1L5DoWa1tGC-44" target="4E_-Y2zPP1L5DoWa1tGC-46">
          <mxGeometry width="50" height="50" relative="1" as="geometry">
            <mxPoint x="220" y="120" as="sourcePoint" />
            <mxPoint x="380" y="330" as="targetPoint" />
          </mxGeometry>
        </mxCell>
        <mxCell id="4E_-Y2zPP1L5DoWa1tGC-55" value="Criar conta&lt;br&gt;(users)" style="rounded=0;whiteSpace=wrap;html=1;" vertex="1" parent="4E_-Y2zPP1L5DoWa1tGC-45">
          <mxGeometry x="40" y="40" width="120" height="60" as="geometry" />
        </mxCell>
        <mxCell id="4E_-Y2zPP1L5DoWa1tGC-59" value="Login&lt;br&gt;(users)" style="rounded=0;whiteSpace=wrap;html=1;" vertex="1" parent="4E_-Y2zPP1L5DoWa1tGC-45">
          <mxGeometry x="40" y="140" width="120" height="60" as="geometry" />
        </mxCell>
        <mxCell id="4E_-Y2zPP1L5DoWa1tGC-57" value="" style="endArrow=classic;html=1;rounded=0;exitX=0.575;exitY=1.033;exitDx=0;exitDy=0;exitPerimeter=0;entryX=0.6;entryY=0;entryDx=0;entryDy=0;entryPerimeter=0;" edge="1" parent="4E_-Y2zPP1L5DoWa1tGC-45" source="4E_-Y2zPP1L5DoWa1tGC-55" target="4E_-Y2zPP1L5DoWa1tGC-59">
          <mxGeometry width="50" height="50" relative="1" as="geometry">
            <mxPoint x="540" y="380" as="sourcePoint" />
            <mxPoint x="129" y="150" as="targetPoint" />
          </mxGeometry>
        </mxCell>
        <mxCell id="4E_-Y2zPP1L5DoWa1tGC-60" value="" style="endArrow=classic;html=1;rounded=0;exitX=0.525;exitY=1.05;exitDx=0;exitDy=0;exitPerimeter=0;entryX=0.542;entryY=0.033;entryDx=0;entryDy=0;entryPerimeter=0;" edge="1" parent="4E_-Y2zPP1L5DoWa1tGC-45" source="4E_-Y2zPP1L5DoWa1tGC-59" target="4E_-Y2zPP1L5DoWa1tGC-44">
          <mxGeometry width="50" height="50" relative="1" as="geometry">
            <mxPoint x="540" y="380" as="sourcePoint" />
            <mxPoint x="590" y="330" as="targetPoint" />
          </mxGeometry>
        </mxCell>
        <mxCell id="4E_-Y2zPP1L5DoWa1tGC-47" value="" style="endArrow=none;html=1;rounded=0;exitX=1;exitY=1;exitDx=0;exitDy=0;exitPerimeter=0;entryX=0.017;entryY=0.483;entryDx=0;entryDy=0;entryPerimeter=0;" edge="1" parent="1" source="4E_-Y2zPP1L5DoWa1tGC-41" target="4E_-Y2zPP1L5DoWa1tGC-55">
          <mxGeometry width="50" height="50" relative="1" as="geometry">
            <mxPoint x="640" y="400" as="sourcePoint" />
            <mxPoint x="690" y="350" as="targetPoint" />
          </mxGeometry>
        </mxCell>
        <mxCell id="4E_-Y2zPP1L5DoWa1tGC-51" value="Lipe&lt;br&gt;" style="shape=umlActor;verticalLabelPosition=bottom;verticalAlign=top;html=1;outlineConnect=0;" vertex="1" parent="1">
          <mxGeometry x="300" y="40" width="30" height="60" as="geometry" />
        </mxCell>
        <mxCell id="4E_-Y2zPP1L5DoWa1tGC-52" value="Vertical Container" style="swimlane;" vertex="1" parent="1">
          <mxGeometry x="360" y="20" width="190" height="490" as="geometry" />
        </mxCell>
        <mxCell id="4E_-Y2zPP1L5DoWa1tGC-61" value="Login&lt;br&gt;(com conta já criada)&lt;br&gt;" style="rounded=0;whiteSpace=wrap;html=1;" vertex="1" parent="4E_-Y2zPP1L5DoWa1tGC-52">
          <mxGeometry x="40" y="30" width="120" height="60" as="geometry" />
        </mxCell>
        <mxCell id="4E_-Y2zPP1L5DoWa1tGC-62" value="Consultar treino&lt;br&gt;(workouts)" style="rounded=0;whiteSpace=wrap;html=1;" vertex="1" parent="4E_-Y2zPP1L5DoWa1tGC-52">
          <mxGeometry x="40" y="140" width="120" height="60" as="geometry" />
        </mxCell>
        <mxCell id="4E_-Y2zPP1L5DoWa1tGC-63" value="Excluir treino&lt;br&gt;(workouts)" style="rounded=0;whiteSpace=wrap;html=1;" vertex="1" parent="4E_-Y2zPP1L5DoWa1tGC-52">
          <mxGeometry x="40" y="230" width="120" height="60" as="geometry" />
        </mxCell>
        <mxCell id="4E_-Y2zPP1L5DoWa1tGC-66" value="Incluir treino&lt;br&gt;(workouts)" style="rounded=0;whiteSpace=wrap;html=1;" vertex="1" parent="4E_-Y2zPP1L5DoWa1tGC-52">
          <mxGeometry x="40" y="320" width="120" height="60" as="geometry" />
        </mxCell>
        <mxCell id="4E_-Y2zPP1L5DoWa1tGC-67" value="Consultar treino&lt;br&gt;(workouts)" style="rounded=0;whiteSpace=wrap;html=1;" vertex="1" parent="4E_-Y2zPP1L5DoWa1tGC-52">
          <mxGeometry x="40" y="410" width="120" height="60" as="geometry" />
        </mxCell>
        <mxCell id="4E_-Y2zPP1L5DoWa1tGC-69" value="" style="endArrow=classic;html=1;rounded=0;exitX=0.442;exitY=1.017;exitDx=0;exitDy=0;exitPerimeter=0;entryX=0.575;entryY=0.033;entryDx=0;entryDy=0;entryPerimeter=0;" edge="1" parent="4E_-Y2zPP1L5DoWa1tGC-52" source="4E_-Y2zPP1L5DoWa1tGC-61" target="4E_-Y2zPP1L5DoWa1tGC-62">
          <mxGeometry width="50" height="50" relative="1" as="geometry">
            <mxPoint x="320" y="260" as="sourcePoint" />
            <mxPoint x="370" y="210" as="targetPoint" />
          </mxGeometry>
        </mxCell>
        <mxCell id="4E_-Y2zPP1L5DoWa1tGC-70" value="" style="endArrow=classic;html=1;rounded=0;exitX=0.575;exitY=1;exitDx=0;exitDy=0;exitPerimeter=0;" edge="1" parent="4E_-Y2zPP1L5DoWa1tGC-52" source="4E_-Y2zPP1L5DoWa1tGC-62">
          <mxGeometry width="50" height="50" relative="1" as="geometry">
            <mxPoint x="320" y="260" as="sourcePoint" />
            <mxPoint x="110" y="230" as="targetPoint" />
            <Array as="points">
              <mxPoint x="110" y="230" />
            </Array>
          </mxGeometry>
        </mxCell>
        <mxCell id="4E_-Y2zPP1L5DoWa1tGC-73" value="" style="endArrow=classic;html=1;rounded=0;exitX=0.492;exitY=1.067;exitDx=0;exitDy=0;exitPerimeter=0;entryX=0.575;entryY=-0.067;entryDx=0;entryDy=0;entryPerimeter=0;" edge="1" parent="4E_-Y2zPP1L5DoWa1tGC-52" source="4E_-Y2zPP1L5DoWa1tGC-63" target="4E_-Y2zPP1L5DoWa1tGC-66">
          <mxGeometry width="50" height="50" relative="1" as="geometry">
            <mxPoint x="330" y="370" as="sourcePoint" />
            <mxPoint x="380" y="320" as="targetPoint" />
          </mxGeometry>
        </mxCell>
        <mxCell id="4E_-Y2zPP1L5DoWa1tGC-74" value="" style="endArrow=classic;html=1;rounded=0;exitX=0.475;exitY=1.017;exitDx=0;exitDy=0;exitPerimeter=0;entryX=0.575;entryY=-0.033;entryDx=0;entryDy=0;entryPerimeter=0;" edge="1" parent="4E_-Y2zPP1L5DoWa1tGC-52" source="4E_-Y2zPP1L5DoWa1tGC-66" target="4E_-Y2zPP1L5DoWa1tGC-67">
          <mxGeometry width="50" height="50" relative="1" as="geometry">
            <mxPoint x="330" y="370" as="sourcePoint" />
            <mxPoint x="380" y="320" as="targetPoint" />
          </mxGeometry>
        </mxCell>
        <mxCell id="4E_-Y2zPP1L5DoWa1tGC-68" value="" style="endArrow=classic;html=1;rounded=0;exitX=1;exitY=1;exitDx=0;exitDy=0;exitPerimeter=0;entryX=0.017;entryY=0.4;entryDx=0;entryDy=0;entryPerimeter=0;" edge="1" parent="1" source="4E_-Y2zPP1L5DoWa1tGC-51" target="4E_-Y2zPP1L5DoWa1tGC-61">
          <mxGeometry width="50" height="50" relative="1" as="geometry">
            <mxPoint x="690" y="290" as="sourcePoint" />
            <mxPoint x="740" y="240" as="targetPoint" />
          </mxGeometry>
        </mxCell>
        <mxCell id="4E_-Y2zPP1L5DoWa1tGC-75" value="Lipe&lt;br&gt;" style="shape=umlActor;verticalLabelPosition=bottom;verticalAlign=top;html=1;outlineConnect=0;" vertex="1" parent="1">
          <mxGeometry x="620" y="30" width="30" height="60" as="geometry" />
        </mxCell>
        <mxCell id="4E_-Y2zPP1L5DoWa1tGC-77" value="Vertical Container" style="swimlane;" vertex="1" parent="1">
          <mxGeometry x="690" y="30" width="200" height="480" as="geometry" />
        </mxCell>
        <mxCell id="4E_-Y2zPP1L5DoWa1tGC-78" value="Login&lt;br&gt;(com conta já criada)" style="rounded=0;whiteSpace=wrap;html=1;" vertex="1" parent="4E_-Y2zPP1L5DoWa1tGC-77">
          <mxGeometry x="40" y="40" width="120" height="60" as="geometry" />
        </mxCell>
      </root>
    </mxGraphModel>
  </diagram>
</mxfile>
